<svg width="169" height="202" viewBox="0 0 169 202" fill="none" xmlns="http://www.w3.org/2000/svg">
<path d="M84 201.685V181.185L1 131L0 152.185L84 201.685Z" fill="#E95656"/>
<path d="M84 201.862V181.603V181L168 132.218V152.944L84 201.862Z" fill="#760808"/>
<path d="M167.995 132.372L84.9093 81.6869L1.0008 130.998L84.0908 181.184L167.995 132.372Z" fill="#2D0E0E"/>
<path d="M84 160.685V140.185L1 90L0 111.185L84 160.685Z" fill="#8A6EF6"/>
<path d="M84 160.862V140.603V140L168 91.2988V111.944L84 160.862Z" fill="#3A34AD"/>
<path d="M167.995 91.3721L84.9093 40.6869L1.0008 89.9983L84.0908 140.184L167.995 91.3721Z" fill="#211D46"/>
<path d="M84 119.685V99.1852L1 49L0 70.1852L84 119.685Z" fill="#EFDE86"/>
<path d="M84 119.862V99.6027V98.9999L168 50.365V70.9439L84 119.862Z" fill="#A99532"/>
<path d="M168 50.5L84.9091 0.686954L1.00023 49L84.0906 100.184L168 50.5Z" fill="#F0D23A"/>
</svg>
